# xmcd
#
# Track frame offsets:
#	150
#	21007
#	40185
#	59630
#	79692
#	96925
#	112492
#	132105
#	153385
#	170780
#	186190
#
# Disc length: 2668 seconds
#
# Revision: 2
# Processed by: cddbd v1.5.2PL0 Copyright (c) Steve Scherf et al.
# Submitted via: audiograbber 1.83.01
#
DISCID=980a6a0b
DTITLE=The Barncats - The Barncats
DYEAR=1995
DGENRE=Country
TTITLE0=(You Treat Me) Like a Cigarette
TTITLE1=Let Me In
TTITLE2=Rehearsing Speeches
TTITLE3=One Hearts Love
TTITLE4=Red or Blue
TTITLE5=I'm Coming Home
TTITLE6=Higher Ground
TTITLE7=My Desire
TTITLE8=Can't Stop Thinking (About Coming)
TTITLE9=Night Train
TTITLE10=Can't Hold Me
EXTD=YEAR: 1995 ID3G:   2
EXTT0=
EXTT1=
EXTT2=
EXTT3=
EXTT4=
EXTT5=
EXTT6=
EXTT7=
EXTT8=
EXTT9=
EXTT10=
PLAYORDER=
